<svg version="1" xmlns="http://www.w3.org/2000/svg" width="682.667" height="682.667" viewBox="0 0 512.000000 512.000000"><path d="M241.9 16.4c-.2.2-4 .6-8.4 1-10.7.8-15.5 1.4-18.5 2.2-1.4.3-3.6.7-5 .9-14.5 2-41.3 11.1-59 19.9-13.5 6.8-33 19.3-41.4 26.5-25.7 22.2-38.8 36.5-53.1 58.1-13 19.6-20.3 34.5-26.9 54.6-3.2 9.7-6.2 21.2-7.2 26.9-.2 1.1-.5 3.1-.8 4.5-.7 3.7-1.4 8.8-2.1 15.5-.4 3.3-.8 7.6-1.1 9.5-.6 5-.6 35.6.1 41.5.3 2.7.7 6.8 1 9 .2 2.2.7 6.2 1.1 9 1.5 13.2 10.3 43.9 16.1 56.5 10.6 23.3 22 41.2 38 59.8 8.9 10.3 22.7 23.9 32.4 31.7 1.3 1.1 4.5 3.6 7 5.6 11.5 9.4 36.8 23.9 51.9 29.9 3 1.2 6.4 2.6 7.5 3.1 4.6 1.9 23.8 7.5 33 9.5 18.2 4 50.4 5.8 72.5 4.1 29.7-2.3 59.5-10.3 84-22.6 17.2-8.6 34.7-19.9 46-29.7 23.2-20 40-38.9 53-59.4 5.1-7.9 5.4-8.5 11.3-20.1 12.5-24.4 20-49.7 23.4-78.4 1.6-13.6.7-63.3-1.1-66.4-.2-.3-.7-2.9-1-5.6-2.5-18.6-10.7-43.9-20.8-64-22.8-45.5-64.5-87-110.3-109.7-20.4-10.1-47.9-18.5-70-21.3-2.7-.4-6.1-.9-7.5-1.2-2.9-.5-43.6-1.4-44.1-.9zm33.8 20c5.7.4 11.1.9 12 1 1 .2 3.9.6 6.4 1 36.9 5.4 71.2 20.6 102 45.3 8.1 6.5 25.3 23.4 31.2 30.7 1.8 2.1 4.7 5.7 6.5 7.9 6 7.2 16 23 21.5 33.9 16 31.2 23.5 64.5 23.1 102-.1 12.3-.9 24.5-1.8 29.4-.2 1.2-.7 4.5-1.1 7.5-1 8.3-6.9 30.4-10.9 40.7-7.4 19.3-16.5 35.5-30.8 54.7-5.1 6.7-26.4 28.9-34.8 36-15.2 13.1-37.1 26.5-55 33.8-14.5 6-34.6 11.8-45.5 13.3-2.7.3-5.2.7-5.5.9-1.8 1.1-19.5 2-37 1.9-38.4-.1-67.5-6.9-99-23.2-42.3-21.8-79.9-60.9-100-103.8-6.7-14.3-14.4-39.2-16.4-52.9-2.4-16.2-2.9-23-3-38-.1-33.9 4.5-59.4 15.9-87.1C75 119 122.6 71.8 174.5 51.2c12-4.7 27.4-9.3 35.5-10.7 1.9-.3 4.2-.8 5-1 1.4-.4 7.4-1.3 13-2 1.4-.2 6.3-.6 11-1s8.6-.8 8.7-.9c.4-.3 19 .2 28 .8z"/><path d="M230.7 106.7c-.2.5-.3 15.8-.2 34 .1 32.9.1 33.3-1.9 33.4-1.2.1-8.9.1-17.3.1-13.2 0-15.2.2-15.5 1.6-.2 1-.4 9.3-.3 18.7v17l16.5.1c9.1 0 17 .2 17.5.2.7.2 1.1 24.9 1.1 76.9.1 42.3.3 79 .4 81.8 1.4 19.2 13.5 32.3 32.6 35.2 7.3 1.1 54.3 1.6 54.5.5.7-4.3.2-35.5-.6-36-.5-.4-8.5-.7-17.6-.7-15.7-.1-17-.3-21.5-2.6-3.2-1.6-5.3-3.6-6.7-6.3-1.9-3.7-2-5.8-1.9-74.9 0-39.2.1-71.9.1-72.8.1-1.4 2.9-1.5 23.3-1.5l23.3.1v-37H270l-.1-2.5c0-1.4-.1-16.8-.1-34.3l-.1-31.7h-19.3c-10.6 0-19.4.3-19.7.7z"/></svg>